<mxfile host="app.diagrams.net" modified="2021-03-16T17:11:58.663Z" agent="5.0 (Windows NT 10.0; Win64; x64) AppleWebKit/537.36 (KHTML, like Gecko) Chrome/89.0.4389.72 Safari/537.36 Edg/89.0.774.45" etag="dAehipvqIu4i5KxdWJv7" version="14.4.7" type="github">
  <diagram id="kgpKYQtTHZ0yAKxKKP6v" name="Page-1">
    <mxGraphModel dx="2272" dy="794" grid="1" gridSize="10" guides="1" tooltips="1" connect="1" arrows="1" fold="1" page="1" pageScale="1" pageWidth="850" pageHeight="1100" math="0" shadow="0">
      <root>
        <mxCell id="0" />
        <mxCell id="1" parent="0" />
        <mxCell id="2_TpKqB_rh0I3Td0qfyK-28" value="" style="rounded=0;whiteSpace=wrap;html=1;fillColor=#dae8fc;strokeColor=#6c8ebf;direction=south;" vertex="1" parent="1">
          <mxGeometry x="-280" y="20" width="1110" height="180" as="geometry" />
        </mxCell>
        <mxCell id="2_TpKqB_rh0I3Td0qfyK-30" value="&lt;font&gt;&lt;font style=&quot;font-size: 24px&quot;&gt;Backend Game Logic&lt;/font&gt;&lt;br&gt;&lt;/font&gt;" style="text;html=1;strokeColor=none;fillColor=none;align=center;verticalAlign=middle;whiteSpace=wrap;rounded=0;" vertex="1" parent="1">
          <mxGeometry x="-390" y="20" width="460" height="50" as="geometry" />
        </mxCell>
        <mxCell id="2_TpKqB_rh0I3Td0qfyK-32" value="&lt;font style=&quot;font-weight: normal ; font-size: 20px&quot;&gt;Game bootup&lt;/font&gt;" style="shape=folder;fontStyle=1;spacingTop=10;tabWidth=40;tabHeight=14;tabPosition=left;html=1;" vertex="1" parent="1">
          <mxGeometry x="-270" y="80" width="130" height="60" as="geometry" />
        </mxCell>
        <mxCell id="2_TpKqB_rh0I3Td0qfyK-33" value="" style="rounded=0;whiteSpace=wrap;html=1;fillColor=#d5e8d4;strokeColor=#82b366;direction=south;" vertex="1" parent="1">
          <mxGeometry x="-280" y="300" width="1110" height="170" as="geometry" />
        </mxCell>
        <mxCell id="2_TpKqB_rh0I3Td0qfyK-34" value="" style="rounded=0;whiteSpace=wrap;html=1;fillColor=#ffe6cc;strokeColor=#d79b00;direction=south;" vertex="1" parent="1">
          <mxGeometry x="-280" y="540" width="1110" height="150" as="geometry" />
        </mxCell>
        <mxCell id="2_TpKqB_rh0I3Td0qfyK-36" value="&lt;font style=&quot;font-weight: normal ; font-size: 20px&quot;&gt;Process move&lt;/font&gt;" style="shape=folder;fontStyle=1;spacingTop=10;tabWidth=40;tabHeight=14;tabPosition=left;html=1;" vertex="1" parent="1">
          <mxGeometry y="80" width="140" height="60" as="geometry" />
        </mxCell>
        <mxCell id="2_TpKqB_rh0I3Td0qfyK-37" value="&lt;font style=&quot;font-weight: normal ; font-size: 20px&quot;&gt;Suggestion Action&lt;/font&gt;" style="shape=folder;fontStyle=1;spacingTop=10;tabWidth=40;tabHeight=14;tabPosition=left;html=1;" vertex="1" parent="1">
          <mxGeometry x="250" y="80" width="180" height="60" as="geometry" />
        </mxCell>
        <mxCell id="2_TpKqB_rh0I3Td0qfyK-38" value="&lt;font style=&quot;font-weight: normal ; font-size: 20px&quot;&gt;Accusation Action&lt;/font&gt;" style="shape=folder;fontStyle=1;spacingTop=10;tabWidth=40;tabHeight=14;tabPosition=left;html=1;" vertex="1" parent="1">
          <mxGeometry x="580" y="80" width="185" height="60" as="geometry" />
        </mxCell>
        <mxCell id="2_TpKqB_rh0I3Td0qfyK-40" value="&lt;font style=&quot;font-size: 20px ; font-weight: normal&quot;&gt;Handle move &lt;br&gt;request&lt;/font&gt;" style="shape=folder;fontStyle=1;spacingTop=10;tabWidth=40;tabHeight=14;tabPosition=left;html=1;" vertex="1" parent="1">
          <mxGeometry y="360" width="210" height="70" as="geometry" />
        </mxCell>
        <mxCell id="2_TpKqB_rh0I3Td0qfyK-41" value="&lt;font&gt;&lt;font style=&quot;font-size: 24px&quot;&gt;Network Server&lt;/font&gt;&lt;br&gt;&lt;/font&gt;" style="text;html=1;strokeColor=none;fillColor=none;align=center;verticalAlign=middle;whiteSpace=wrap;rounded=0;" vertex="1" parent="1">
          <mxGeometry x="516" y="430" width="460" height="50" as="geometry" />
        </mxCell>
        <mxCell id="2_TpKqB_rh0I3Td0qfyK-43" value="&lt;font style=&quot;font-size: 20px ; font-weight: normal&quot;&gt;Move request&lt;/font&gt;" style="shape=folder;fontStyle=1;spacingTop=10;tabWidth=40;tabHeight=14;tabPosition=left;html=1;" vertex="1" parent="1">
          <mxGeometry y="590" width="130" height="60" as="geometry" />
        </mxCell>
        <mxCell id="2_TpKqB_rh0I3Td0qfyK-45" value="&lt;font style=&quot;font-size: 20px ; font-weight: normal&quot;&gt;Handle suggestion request&lt;/font&gt;" style="shape=folder;fontStyle=1;spacingTop=10;tabWidth=40;tabHeight=14;tabPosition=left;html=1;" vertex="1" parent="1">
          <mxGeometry x="250" y="360" width="270" height="60" as="geometry" />
        </mxCell>
        <mxCell id="2_TpKqB_rh0I3Td0qfyK-46" value="&lt;font&gt;&lt;font style=&quot;font-size: 24px&quot;&gt;Front End Interface&lt;/font&gt;&lt;br&gt;&lt;/font&gt;" style="text;html=1;strokeColor=none;fillColor=none;align=center;verticalAlign=middle;whiteSpace=wrap;rounded=0;" vertex="1" parent="1">
          <mxGeometry x="-400" y="650" width="460" height="50" as="geometry" />
        </mxCell>
        <mxCell id="2_TpKqB_rh0I3Td0qfyK-47" value="&lt;font style=&quot;font-size: 20px ; font-weight: normal&quot;&gt;Suggestion request&lt;/font&gt;" style="shape=folder;fontStyle=1;spacingTop=10;tabWidth=40;tabHeight=14;tabPosition=left;html=1;" vertex="1" parent="1">
          <mxGeometry x="280" y="585" width="200" height="70" as="geometry" />
        </mxCell>
        <mxCell id="2_TpKqB_rh0I3Td0qfyK-51" value="" style="endArrow=classic;html=1;exitX=0;exitY=0;exitDx=0;exitDy=0;exitPerimeter=0;entryX=0;entryY=0;entryDx=0;entryDy=60;entryPerimeter=0;" edge="1" parent="1" source="2_TpKqB_rh0I3Td0qfyK-43" target="2_TpKqB_rh0I3Td0qfyK-40">
          <mxGeometry width="50" height="50" relative="1" as="geometry">
            <mxPoint x="80" y="520" as="sourcePoint" />
            <mxPoint x="130" y="470" as="targetPoint" />
          </mxGeometry>
        </mxCell>
        <mxCell id="2_TpKqB_rh0I3Td0qfyK-52" value="" style="endArrow=classic;html=1;exitX=0;exitY=0;exitDx=0;exitDy=0;exitPerimeter=0;entryX=0;entryY=0;entryDx=0;entryDy=60;entryPerimeter=0;" edge="1" parent="1" source="2_TpKqB_rh0I3Td0qfyK-40" target="2_TpKqB_rh0I3Td0qfyK-36">
          <mxGeometry width="50" height="50" relative="1" as="geometry">
            <mxPoint x="84.5" y="350" as="sourcePoint" />
            <mxPoint x="84.5" y="180" as="targetPoint" />
          </mxGeometry>
        </mxCell>
        <mxCell id="2_TpKqB_rh0I3Td0qfyK-53" value="" style="endArrow=classic;html=1;exitX=0.75;exitY=1;exitDx=0;exitDy=0;exitPerimeter=0;" edge="1" parent="1" source="2_TpKqB_rh0I3Td0qfyK-36">
          <mxGeometry width="50" height="50" relative="1" as="geometry">
            <mxPoint x="150" y="280" as="sourcePoint" />
            <mxPoint x="105" y="370" as="targetPoint" />
          </mxGeometry>
        </mxCell>
        <mxCell id="2_TpKqB_rh0I3Td0qfyK-54" value="" style="endArrow=classic;html=1;exitX=0.5;exitY=1;exitDx=0;exitDy=0;exitPerimeter=0;entryX=0.815;entryY=0.25;entryDx=0;entryDy=0;entryPerimeter=0;" edge="1" parent="1" source="2_TpKqB_rh0I3Td0qfyK-40" target="2_TpKqB_rh0I3Td0qfyK-43">
          <mxGeometry width="50" height="50" relative="1" as="geometry">
            <mxPoint x="135" y="150" as="sourcePoint" />
            <mxPoint x="70" y="370" as="targetPoint" />
          </mxGeometry>
        </mxCell>
        <mxCell id="2_TpKqB_rh0I3Td0qfyK-57" value="" style="endArrow=classic;html=1;exitX=0;exitY=0;exitDx=0;exitDy=0;exitPerimeter=0;entryX=0.104;entryY=0.983;entryDx=0;entryDy=0;entryPerimeter=0;" edge="1" parent="1" source="2_TpKqB_rh0I3Td0qfyK-47" target="2_TpKqB_rh0I3Td0qfyK-45">
          <mxGeometry width="50" height="50" relative="1" as="geometry">
            <mxPoint x="240" y="600" as="sourcePoint" />
            <mxPoint x="240" y="430" as="targetPoint" />
          </mxGeometry>
        </mxCell>
        <mxCell id="2_TpKqB_rh0I3Td0qfyK-58" value="" style="endArrow=classic;html=1;exitX=0;exitY=0;exitDx=0;exitDy=0;exitPerimeter=0;entryX=0;entryY=0;entryDx=0;entryDy=60;entryPerimeter=0;" edge="1" parent="1" source="2_TpKqB_rh0I3Td0qfyK-45" target="2_TpKqB_rh0I3Td0qfyK-37">
          <mxGeometry width="50" height="50" relative="1" as="geometry">
            <mxPoint x="320" y="320" as="sourcePoint" />
            <mxPoint x="320" y="150" as="targetPoint" />
          </mxGeometry>
        </mxCell>
        <mxCell id="2_TpKqB_rh0I3Td0qfyK-59" value="" style="endArrow=classic;html=1;exitX=0.75;exitY=1;exitDx=0;exitDy=0;exitPerimeter=0;entryX=0.5;entryY=0.217;entryDx=0;entryDy=0;entryPerimeter=0;" edge="1" parent="1" source="2_TpKqB_rh0I3Td0qfyK-37" target="2_TpKqB_rh0I3Td0qfyK-45">
          <mxGeometry width="50" height="50" relative="1" as="geometry">
            <mxPoint x="270" y="370" as="sourcePoint" />
            <mxPoint x="235" y="150" as="targetPoint" />
          </mxGeometry>
        </mxCell>
        <mxCell id="2_TpKqB_rh0I3Td0qfyK-60" value="" style="endArrow=classic;html=1;exitX=0.5;exitY=1;exitDx=0;exitDy=0;exitPerimeter=0;" edge="1" parent="1" source="2_TpKqB_rh0I3Td0qfyK-45">
          <mxGeometry width="50" height="50" relative="1" as="geometry">
            <mxPoint x="325" y="150" as="sourcePoint" />
            <mxPoint x="385" y="590" as="targetPoint" />
          </mxGeometry>
        </mxCell>
        <mxCell id="2_TpKqB_rh0I3Td0qfyK-61" value="&lt;font style=&quot;font-size: 20px ; font-weight: normal&quot;&gt;Start game&lt;/font&gt;" style="shape=folder;fontStyle=1;spacingTop=10;tabWidth=40;tabHeight=14;tabPosition=left;html=1;" vertex="1" parent="1">
          <mxGeometry x="-260" y="590" width="130" height="60" as="geometry" />
        </mxCell>
        <mxCell id="2_TpKqB_rh0I3Td0qfyK-62" value="&lt;font style=&quot;font-size: 20px ; font-weight: normal&quot;&gt;Handle game request&lt;/font&gt;" style="shape=folder;fontStyle=1;spacingTop=10;tabWidth=40;tabHeight=14;tabPosition=left;html=1;" vertex="1" parent="1">
          <mxGeometry x="-260" y="360" width="210" height="60" as="geometry" />
        </mxCell>
        <mxCell id="2_TpKqB_rh0I3Td0qfyK-63" value="" style="endArrow=classic;html=1;exitX=0;exitY=0;exitDx=0;exitDy=0;exitPerimeter=0;entryX=0;entryY=0;entryDx=0;entryDy=60;entryPerimeter=0;" edge="1" parent="1" source="2_TpKqB_rh0I3Td0qfyK-61" target="2_TpKqB_rh0I3Td0qfyK-62">
          <mxGeometry width="50" height="50" relative="1" as="geometry">
            <mxPoint x="30" y="600" as="sourcePoint" />
            <mxPoint x="30" y="430" as="targetPoint" />
          </mxGeometry>
        </mxCell>
        <mxCell id="2_TpKqB_rh0I3Td0qfyK-64" value="" style="endArrow=classic;html=1;entryX=0.131;entryY=1.033;entryDx=0;entryDy=0;entryPerimeter=0;" edge="1" parent="1" target="2_TpKqB_rh0I3Td0qfyK-32">
          <mxGeometry width="50" height="50" relative="1" as="geometry">
            <mxPoint x="-253" y="362" as="sourcePoint" />
            <mxPoint x="-340" y="210" as="targetPoint" />
          </mxGeometry>
        </mxCell>
        <mxCell id="2_TpKqB_rh0I3Td0qfyK-65" value="" style="endArrow=classic;html=1;exitX=0.75;exitY=1;exitDx=0;exitDy=0;exitPerimeter=0;entryX=0.424;entryY=0.267;entryDx=0;entryDy=0;entryPerimeter=0;" edge="1" parent="1" source="2_TpKqB_rh0I3Td0qfyK-32" target="2_TpKqB_rh0I3Td0qfyK-62">
          <mxGeometry width="50" height="50" relative="1" as="geometry">
            <mxPoint x="-230" y="370" as="sourcePoint" />
            <mxPoint x="-90" y="250" as="targetPoint" />
          </mxGeometry>
        </mxCell>
        <mxCell id="2_TpKqB_rh0I3Td0qfyK-66" value="" style="endArrow=classic;html=1;exitX=0.433;exitY=1.033;exitDx=0;exitDy=0;exitPerimeter=0;" edge="1" parent="1" source="2_TpKqB_rh0I3Td0qfyK-62">
          <mxGeometry width="50" height="50" relative="1" as="geometry">
            <mxPoint x="-37" y="498" as="sourcePoint" />
            <mxPoint x="-170" y="600" as="targetPoint" />
          </mxGeometry>
        </mxCell>
        <mxCell id="2_TpKqB_rh0I3Td0qfyK-67" value="&lt;font style=&quot;font-size: 20px ; font-weight: normal&quot;&gt;Handle accusation &lt;br&gt;request&lt;/font&gt;" style="shape=folder;fontStyle=1;spacingTop=10;tabWidth=40;tabHeight=14;tabPosition=left;html=1;" vertex="1" parent="1">
          <mxGeometry x="547.5" y="360" width="270" height="60" as="geometry" />
        </mxCell>
        <mxCell id="2_TpKqB_rh0I3Td0qfyK-68" value="" style="endArrow=classic;html=1;exitX=0.18;exitY=0.183;exitDx=0;exitDy=0;exitPerimeter=0;" edge="1" parent="1" source="2_TpKqB_rh0I3Td0qfyK-67">
          <mxGeometry width="50" height="50" relative="1" as="geometry">
            <mxPoint x="568" y="350" as="sourcePoint" />
            <mxPoint x="596" y="160" as="targetPoint" />
          </mxGeometry>
        </mxCell>
        <mxCell id="2_TpKqB_rh0I3Td0qfyK-69" value="" style="endArrow=classic;html=1;exitX=0.5;exitY=1;exitDx=0;exitDy=0;exitPerimeter=0;fontStyle=1;" edge="1" parent="1" source="2_TpKqB_rh0I3Td0qfyK-38">
          <mxGeometry width="50" height="50" relative="1" as="geometry">
            <mxPoint x="520" y="370" as="sourcePoint" />
            <mxPoint x="673" y="360" as="targetPoint" />
          </mxGeometry>
        </mxCell>
        <mxCell id="2_TpKqB_rh0I3Td0qfyK-70" value="&lt;font style=&quot;font-size: 20px ; font-weight: normal&quot;&gt;Accusation request&lt;/font&gt;" style="shape=folder;fontStyle=1;spacingTop=10;tabWidth=40;tabHeight=14;tabPosition=left;html=1;" vertex="1" parent="1">
          <mxGeometry x="582.5" y="585" width="200" height="70" as="geometry" />
        </mxCell>
        <mxCell id="2_TpKqB_rh0I3Td0qfyK-71" value="" style="endArrow=classic;html=1;exitX=0.328;exitY=1;exitDx=0;exitDy=0;fontStyle=1;exitPerimeter=0;" edge="1" parent="1" source="2_TpKqB_rh0I3Td0qfyK-67">
          <mxGeometry width="50" height="50" relative="1" as="geometry">
            <mxPoint x="628.75" y="150" as="sourcePoint" />
            <mxPoint x="640" y="580" as="targetPoint" />
          </mxGeometry>
        </mxCell>
        <mxCell id="2_TpKqB_rh0I3Td0qfyK-72" value="" style="endArrow=classic;html=1;exitX=0;exitY=0;exitDx=0;exitDy=0;fontStyle=1;exitPerimeter=0;entryX=0.141;entryY=-0.02;entryDx=0;entryDy=0;entryPerimeter=0;" edge="1" parent="1" source="2_TpKqB_rh0I3Td0qfyK-70" target="2_TpKqB_rh0I3Td0qfyK-41">
          <mxGeometry width="50" height="50" relative="1" as="geometry">
            <mxPoint x="625" y="430" as="sourcePoint" />
            <mxPoint x="583" y="440" as="targetPoint" />
          </mxGeometry>
        </mxCell>
        <mxCell id="2_TpKqB_rh0I3Td0qfyK-73" value="&lt;font style=&quot;font-size: 16px&quot;&gt;1&lt;/font&gt;" style="text;html=1;strokeColor=none;fillColor=none;align=center;verticalAlign=middle;whiteSpace=wrap;rounded=0;" vertex="1" parent="1">
          <mxGeometry x="-290" y="560" width="40" height="20" as="geometry" />
        </mxCell>
        <mxCell id="2_TpKqB_rh0I3Td0qfyK-75" value="&lt;font style=&quot;font-size: 16px&quot;&gt;2&lt;/font&gt;" style="text;html=1;strokeColor=none;fillColor=none;align=center;verticalAlign=middle;whiteSpace=wrap;rounded=0;" vertex="1" parent="1">
          <mxGeometry x="-290" y="230" width="40" height="20" as="geometry" />
        </mxCell>
        <mxCell id="2_TpKqB_rh0I3Td0qfyK-76" value="&lt;font style=&quot;font-size: 16px&quot;&gt;3&lt;/font&gt;" style="text;html=1;strokeColor=none;fillColor=none;align=center;verticalAlign=middle;whiteSpace=wrap;rounded=0;" vertex="1" parent="1">
          <mxGeometry x="-160" y="230" width="40" height="20" as="geometry" />
        </mxCell>
        <mxCell id="2_TpKqB_rh0I3Td0qfyK-77" value="&lt;font style=&quot;font-size: 16px&quot;&gt;4&lt;/font&gt;" style="text;html=1;strokeColor=none;fillColor=none;align=center;verticalAlign=middle;whiteSpace=wrap;rounded=0;" vertex="1" parent="1">
          <mxGeometry x="-175" y="510" width="40" height="20" as="geometry" />
        </mxCell>
        <mxCell id="2_TpKqB_rh0I3Td0qfyK-79" value="" style="endArrow=none;dashed=1;html=1;dashPattern=1 3;strokeWidth=2;exitX=0.25;exitY=1;exitDx=0;exitDy=0;" edge="1" parent="1" source="2_TpKqB_rh0I3Td0qfyK-81">
          <mxGeometry width="50" height="50" relative="1" as="geometry">
            <mxPoint x="-36" y="530" as="sourcePoint" />
            <mxPoint x="-36" y="80" as="targetPoint" />
          </mxGeometry>
        </mxCell>
        <mxCell id="2_TpKqB_rh0I3Td0qfyK-80" value="" style="endArrow=none;dashed=1;html=1;dashPattern=1 3;strokeWidth=2;exitX=0.267;exitY=0.546;exitDx=0;exitDy=0;exitPerimeter=0;" edge="1" parent="1" source="2_TpKqB_rh0I3Td0qfyK-34">
          <mxGeometry width="50" height="50" relative="1" as="geometry">
            <mxPoint x="224" y="530" as="sourcePoint" />
            <mxPoint x="224" y="80" as="targetPoint" />
          </mxGeometry>
        </mxCell>
        <mxCell id="2_TpKqB_rh0I3Td0qfyK-81" value="&lt;font style=&quot;font-size: 16px&quot;&gt;1&lt;/font&gt;" style="text;html=1;strokeColor=none;fillColor=none;align=center;verticalAlign=middle;whiteSpace=wrap;rounded=0;" vertex="1" parent="1">
          <mxGeometry x="-41" y="560" width="40" height="20" as="geometry" />
        </mxCell>
        <mxCell id="2_TpKqB_rh0I3Td0qfyK-82" value="&lt;font style=&quot;font-size: 16px&quot;&gt;2&lt;/font&gt;" style="text;html=1;strokeColor=none;fillColor=none;align=center;verticalAlign=middle;whiteSpace=wrap;rounded=0;" vertex="1" parent="1">
          <mxGeometry x="-10" y="230" width="40" height="20" as="geometry" />
        </mxCell>
        <mxCell id="2_TpKqB_rh0I3Td0qfyK-83" value="&lt;font style=&quot;font-size: 16px&quot;&gt;3&lt;/font&gt;" style="text;html=1;strokeColor=none;fillColor=none;align=center;verticalAlign=middle;whiteSpace=wrap;rounded=0;" vertex="1" parent="1">
          <mxGeometry x="100" y="230" width="40" height="20" as="geometry" />
        </mxCell>
        <mxCell id="2_TpKqB_rh0I3Td0qfyK-84" value="&lt;font style=&quot;font-size: 16px&quot;&gt;4&lt;/font&gt;" style="text;html=1;strokeColor=none;fillColor=none;align=center;verticalAlign=middle;whiteSpace=wrap;rounded=0;" vertex="1" parent="1">
          <mxGeometry x="100" y="510" width="40" height="20" as="geometry" />
        </mxCell>
        <mxCell id="2_TpKqB_rh0I3Td0qfyK-85" value="&lt;font style=&quot;font-size: 16px&quot;&gt;1&lt;/font&gt;" style="text;html=1;strokeColor=none;fillColor=none;align=center;verticalAlign=middle;whiteSpace=wrap;rounded=0;" vertex="1" parent="1">
          <mxGeometry x="250" y="560" width="40" height="20" as="geometry" />
        </mxCell>
        <mxCell id="2_TpKqB_rh0I3Td0qfyK-87" value="&lt;font style=&quot;font-size: 16px&quot;&gt;2&lt;/font&gt;" style="text;html=1;strokeColor=none;fillColor=none;align=center;verticalAlign=middle;whiteSpace=wrap;rounded=0;" vertex="1" parent="1">
          <mxGeometry x="240" y="230" width="40" height="20" as="geometry" />
        </mxCell>
        <mxCell id="2_TpKqB_rh0I3Td0qfyK-88" value="&lt;font style=&quot;font-size: 16px&quot;&gt;3&lt;/font&gt;" style="text;html=1;strokeColor=none;fillColor=none;align=center;verticalAlign=middle;whiteSpace=wrap;rounded=0;" vertex="1" parent="1">
          <mxGeometry x="385" y="230" width="40" height="20" as="geometry" />
        </mxCell>
        <mxCell id="2_TpKqB_rh0I3Td0qfyK-89" value="&lt;font style=&quot;font-size: 16px&quot;&gt;4&lt;/font&gt;" style="text;html=1;strokeColor=none;fillColor=none;align=center;verticalAlign=middle;whiteSpace=wrap;rounded=0;" vertex="1" parent="1">
          <mxGeometry x="390" y="510" width="40" height="20" as="geometry" />
        </mxCell>
        <mxCell id="2_TpKqB_rh0I3Td0qfyK-90" value="" style="endArrow=none;dashed=1;html=1;dashPattern=1 3;strokeWidth=2;exitX=0;exitY=1;exitDx=0;exitDy=0;" edge="1" parent="1">
          <mxGeometry width="50" height="50" relative="1" as="geometry">
            <mxPoint x="537.5" y="580" as="sourcePoint" />
            <mxPoint x="530" y="90" as="targetPoint" />
          </mxGeometry>
        </mxCell>
        <mxCell id="2_TpKqB_rh0I3Td0qfyK-91" value="&lt;font style=&quot;font-size: 16px&quot;&gt;1&lt;/font&gt;" style="text;html=1;strokeColor=none;fillColor=none;align=center;verticalAlign=middle;whiteSpace=wrap;rounded=0;" vertex="1" parent="1">
          <mxGeometry x="542.5" y="560" width="40" height="20" as="geometry" />
        </mxCell>
        <mxCell id="2_TpKqB_rh0I3Td0qfyK-92" value="&lt;font style=&quot;font-size: 16px&quot;&gt;2&lt;/font&gt;" style="text;html=1;strokeColor=none;fillColor=none;align=center;verticalAlign=middle;whiteSpace=wrap;rounded=0;" vertex="1" parent="1">
          <mxGeometry x="560" y="230" width="40" height="20" as="geometry" />
        </mxCell>
        <mxCell id="2_TpKqB_rh0I3Td0qfyK-93" value="&lt;font style=&quot;font-size: 16px&quot;&gt;3&lt;/font&gt;" style="text;html=1;strokeColor=none;fillColor=none;align=center;verticalAlign=middle;whiteSpace=wrap;rounded=0;" vertex="1" parent="1">
          <mxGeometry x="670" y="230" width="40" height="20" as="geometry" />
        </mxCell>
        <mxCell id="2_TpKqB_rh0I3Td0qfyK-94" value="&lt;font style=&quot;font-size: 16px&quot;&gt;4&lt;/font&gt;" style="text;html=1;strokeColor=none;fillColor=none;align=center;verticalAlign=middle;whiteSpace=wrap;rounded=0;" vertex="1" parent="1">
          <mxGeometry x="630" y="510" width="40" height="20" as="geometry" />
        </mxCell>
        <mxCell id="2_TpKqB_rh0I3Td0qfyK-95" value="Text" style="text;html=1;strokeColor=none;fillColor=none;align=center;verticalAlign=middle;whiteSpace=wrap;rounded=0;" vertex="1" parent="1">
          <mxGeometry x="-360" y="720" width="40" height="20" as="geometry" />
        </mxCell>
      </root>
    </mxGraphModel>
  </diagram>
</mxfile>
